<?xml version="1.0" encoding="utf-8"?>
<!-- Generator: Adobe Illustrator 27.1.0, SVG Export Plug-In . SVG Version: 6.00 Build 0)  -->
<svg version="1.1" id="Ebene_1" xmlns="http://www.w3.org/2000/svg" xmlns:xlink="http://www.w3.org/1999/xlink" x="0px" y="0px"
	 viewBox="0 0 480 448.1" style="enable-background:new 0 0 480 448.1;" xml:space="preserve">
<style type="text/css">
	.st0{fill:#FFFFFF;}
</style>
<path class="st0" d="M126.9,110.9c62.2-62.2,162.7-62.5,225.3-1L311,151c-6.9,6.9-8.9,17.2-5.2,26.2S318.3,192,328,192h119.5l0,0
	h8.5c13.3,0,24-10.7,24-24V40c0-9.7-5.8-18.5-14.8-22.2S445.9,16.1,439,23l-41.6,41.6c-87.6-86.5-228.7-86.2-315.8,1
	c-24.4,24.4-42,53.1-52.8,83.8c-5.9,16.7,2.9,34.9,19.5,40.8s34.9-2.9,40.8-19.5C96.8,148.9,109.3,128.4,126.9,110.9L126.9,110.9z
	 M0,280v7.6v0.7V408c0,9.7,5.8,18.5,14.8,22.2s19.3,1.7,26.2-5.2l41.6-41.6c87.6,86.5,228.7,86.2,315.8-1
	c24.4-24.4,42.1-53.1,52.9-83.7c5.9-16.7-2.9-34.9-19.5-40.8c-16.6-5.9-34.9,2.9-40.8,19.5c-7.7,21.8-20.2,42.3-37.8,59.8
	c-62.2,62.2-162.7,62.5-225.3,1L169,297c6.9-6.9,8.9-17.2,5.2-26.2S161.7,256,152,256H32.4h-0.7H24C10.7,256,0,266.7,0,280z"/>
</svg>
